<?xml version="1.0" encoding="UTF-8" standalone="no"?>
<svg
   xmlns:dc="http://purl.org/dc/elements/1.1/"
   xmlns:cc="http://creativecommons.org/ns#"
   xmlns:rdf="http://www.w3.org/1999/02/22-rdf-syntax-ns#"
   xmlns:svg="http://www.w3.org/2000/svg"
   xmlns="http://www.w3.org/2000/svg"
   viewBox="0 0 533.33331 188.73334"
   height="188.73334"
   width="533.33331"
   xml:space="preserve"
   version="1.1"
   id="svg2"><metadata
     id="metadata8"><rdf:RDF><cc:Work
         rdf:about=""><dc:format>image/svg+xml</dc:format><dc:type
           rdf:resource="http://purl.org/dc/dcmitype/StillImage" /></cc:Work></rdf:RDF></metadata><defs
     id="defs6"><clipPath
       id="clipPath18"
       clipPathUnits="userSpaceOnUse"><path
         id="path20"
         d="M 0,1415.52 0,0 l 3999.98,0 0,1415.52 -3999.98,0 z" /></clipPath></defs><g
     transform="matrix(1.3333333,0,0,-1.3333333,0,188.73333)"
     id="g10"><g
       transform="scale(0.1)"
       id="g12"><g
         id="g14"><g
           clip-path="url(#clipPath18)"
           id="g16"><path
             id="path22"
             style="fill:#168de2;fill-opacity:1;fill-rule:evenodd;stroke:none"
             d="m 3959.37,1415.52 -3918.7606,0 C 18.1797,1415.52 0,1397.34 0,1374.91 L 0,40.6094 C 0,18.1797 18.1797,0 40.6094,0 L 3959.37,0 c 22.42,0 40.61,18.1797 40.61,40.6094 l 0,1334.3006 c 0,22.43 -18.19,40.61 -40.61,40.61" /><path
             id="path24"
             style="fill:#ffa930;fill-opacity:1;fill-rule:evenodd;stroke:none"
             d="m 755.215,883.598 c -4.332,84.14 -66.777,134.732 -142.192,134.732 l -2.843,0 c -87.032,0 -135.301,-68.443 -135.301,-146.178 0,-87.062 58.398,-142.043 134.961,-142.043 85.371,0 141.508,62.532 145.57,136.496 l -0.195,16.993 z M 610.605,1093.6 c 58.161,0 112.829,-25.7 152.977,-65.94 l 0,-0.16 c 0,19.33 12.992,33.89 31.063,33.89 l 4.558,0.03 c 28.242,0 34.035,-26.73 34.035,-35.19 l 0.145,-300.437 c -1.992,-19.656 20.293,-29.805 32.656,-17.207 48.242,49.582 105.949,254.863 -29.988,373.804 -126.699,110.9 -296.696,92.62 -387.102,30.31 C 352.84,1046.41 291.344,899.719 351.082,761.938 416.199,611.625 602.547,566.82 713.301,611.508 c 56.082,22.644 81.984,-53.176 23.738,-77.942 -88.012,-37.507 -332.965,-33.73 -447.387,164.493 -77.308,133.847 -73.191,369.351 131.852,491.371 156.855,93.33 363.656,67.48 488.355,-62.76 130.351,-136.139 122.751,-391.072 -4.394,-490.24 -57.61,-45.012 -143.164,-1.184 -142.617,64.441 l -0.594,21.457 c -40.117,-39.805 -93.488,-63.027 -151.649,-63.027 -114.902,0 -216.007,101.113 -216.007,215.976 0,116.055 101.105,218.323 216.007,218.323 l 0,0" /><path
             id="path26"
             style="fill:#ffa930;fill-opacity:1;fill-rule:evenodd;stroke:none"
             d="m 2857.4,655.805 c -0.24,-18.606 -19.69,-37.668 -47.91,-37.668 -28.47,0 -46.21,20.832 -46.21,39.218 l 0.03,31.75 c 0.34,19.141 18.03,39.024 46.92,39.024 31.58,0 47.26,-21.32 47.26,-41.359 l -0.09,-30.965" /><path
             id="path28"
             style="fill:#ffa930;fill-opacity:1;fill-rule:evenodd;stroke:none"
             d="m 3165.55,1105.29 c -131.34,-0.55 -243.37,-116.321 -242.74,-243.735 l 0,-198.594 c 0,-25.867 21.17,-44.824 43.48,-44.824 26.54,0 47.15,19.621 47.15,43.449 l 0,201.629 c -0.08,72.199 63.02,151.895 151.53,151.465 28.83,-0.13 47.76,21.74 47.62,45.92 -0.1,19.35 -14,44.83 -47.04,44.69" /><path
             id="path30"
             style="fill:#ffa930;fill-opacity:1;fill-rule:evenodd;stroke:none"
             d="m 3711.1,1105.29 c -27.92,0 -45.91,-22.86 -45.91,-43.96 l 0.01,-199.853 c 0,-77.157 -64.95,-152.481 -155.29,-152.481 -73.85,0 -152.08,64.082 -152.08,151.035 l 0,200.189 c 0,21.01 -15.75,45.07 -47.03,45.07 -22.09,0 -44.64,-18.53 -44.64,-44.17 l 0,-199.534 c 0,-129.18 115.46,-242.969 243.46,-242.969 139.76,0 246.99,119.832 246.99,242.371 l 0,200.212 c 0,22.44 -18.51,44.09 -45.51,44.09" /><path
             id="path32"
             style="fill:#ffffff;fill-opacity:1;fill-rule:nonzero;stroke:none"
             d="m 2382.01,1177.22 c 0,-19.59 -19.61,-35.7 -47.86,-35.7 -28.44,0 -46.17,19.48 -46.17,37.84 l 0.01,25.26 c 0.34,19.13 17.06,40.54 45.9,40.54 31.59,0 48.12,-20.47 48.12,-40.54 l 0,-27.4" /><path
             id="path34"
             style="fill:#ffffff;fill-opacity:1;fill-rule:nonzero;stroke:none"
             d="m 1531.74,1104.93 c -57.73,0.86 -101.97,-32.65 -129.25,-54.98 -30.29,32.48 -69.07,52.28 -108.9,54.75 -42.02,2.59 -81.43,-11.56 -106.49,-31.91 -8.77,20.35 -20.34,32.33 -40.14,32.33 -21.72,0 -44.82,-18.55 -44.82,-48.84 0,-30.23 0.26,-392.487 0.26,-392.487 0,-22.531 19.25,-45.383 46.73,-45.383 30.31,0 47.07,23.117 47.07,45.528 l 0,291.164 c 0,28.328 48.43,61.848 89.37,61.308 26.16,-0.35 57.25,-26.152 57.25,-66.836 l 0.24,-286.308 c 0,-25.325 25.47,-44.727 48.58,-44.727 27.47,0 48.28,20.762 48.28,44.422 l 0,289.367 c 0,35.449 53.86,65.162 90.74,63.262 28.91,-1.52 54.46,-33.02 54.46,-63.262 l 0,-288.957 c 0,-25.027 23.49,-44.832 48.83,-44.832 22.24,0 47.98,14.727 47.98,45.254 l 0,287.703 c 0.32,105.594 -103.98,154.864 -150.19,153.434" /><path
             id="path36"
             style="fill:#ffffff;fill-opacity:1;fill-rule:nonzero;stroke:none"
             d="m 2334.55,1105.25 c -28.17,-0.13 -46.37,-23.23 -46.41,-46.69 l 0.11,-394.33 c -0.21,-26.152 20.51,-45.664 46.12,-45.664 29.22,0 47.89,22.832 47.89,47.688 l 0.2,391.646 c 0,23.16 -23.39,47.42 -47.91,47.35" /><path
             id="path38"
             style="fill:#ffffff;fill-opacity:1;fill-rule:nonzero;stroke:none"
             d="m 1972.6,708.5 c -84.74,0 -153.44,68.66 -153.44,153.348 0,84.726 68.7,153.372 153.44,153.372 84.76,0 153.46,-68.646 153.46,-153.372 0,-84.688 -68.7,-153.348 -153.46,-153.348 z m 198.25,396.62 c -26.47,0.05 -45.18,-21.15 -45.18,-41.81 l 0,-16.1 c -41.79,35.59 -95.93,57.65 -154.37,57.72 -128.59,0.24 -242.47,-108.11 -242.47,-243.629 0,-124.239 108.5,-242.891 242.47,-242.891 54.19,0 112.48,20.84 153.9,56.172 l 0.12,-11.531 c 0,-22.063 17.48,-44.641 46.19,-44.641 32.6,0 47.19,26.035 47.19,46.602 l 0,395.788 c 0.35,18.57 -20.05,44.3 -47.85,44.32" /><path
             id="path40"
             style="fill:#ffffff;fill-opacity:1;fill-rule:nonzero;stroke:none"
             d="m 2657.45,712.602 c -59.71,0.039 -112.95,45.957 -112.95,113.679 l 0.07,374.879 c -0.07,25.89 -21.21,44 -47.03,44 -30.02,-0.08 -47.32,-22.19 -47.32,-44 l 0,-375.238 c -0.34,-116.484 95.95,-207.785 205.55,-207.785 32.54,0 48.24,26.425 48.24,48.789 0,21.347 -16.83,45.656 -46.56,45.676" /><path
             id="path42"
             style="fill:#ffffff;fill-opacity:1;fill-rule:evenodd;stroke:none"
             d="M 3083.33,448.215 C 3027.51,448 2979.89,398.789 2980.14,344.602 l 0,-84.43 c 0,-11 9.04,-19.031 18.52,-19.031 11.24,0 20.03,8.32 20.03,18.461 l 0,85.75 c -0.06,30.679 26.81,64.519 64.38,64.339 12.3,-0.05 20.27,9.278 20.24,19.559 -0.04,8.184 -5.92,19.004 -19.98,18.965" /><path
             id="path44"
             style="fill:#ffffff;fill-opacity:1;fill-rule:nonzero;stroke:none"
             d="m 3206.94,279.629 c -35.79,0 -64.75,28.781 -65.18,64.461 l 0,1.539 c 0.34,28.82 19.33,53.16 45.54,61.391 6.11,1.91 12.63,2.91 19.42,2.91 35.74,0 64.8,-28.782 65.17,-64.43 l 0,-1.59 c -0.36,-28.808 -19.35,-53.101 -45.6,-61.39 -6.09,-1.891 -12.59,-2.891 -19.35,-2.891 z m 103.4,65.32 c 0,52.84 -46.16,103.266 -103.04,103.266 -0.68,0 -1.28,-0.078 -1.94,-0.117 -54.22,-0.438 -102.05,-46.258 -102.05,-103.496 0,-52.821 46.09,-103.293 103.1,-103.293 0.6,0 1.26,0.132 1.87,0.132 54.29,0.528 102.06,46.297 102.06,103.508" /><path
             id="path46"
             style="fill:#ffffff;fill-opacity:1;fill-rule:evenodd;stroke:none"
             d="m 3514.27,448.215 c -11.85,0 -19.49,-9.735 -19.49,-18.711 l 0,-84.902 c 0,-32.832 -27.65,-64.821 -66.07,-64.821 -31.4,0 -64.65,27.231 -64.65,64.207 l 0,85.086 c 0,8.918 -6.64,19.141 -19.96,19.141 -9.37,0 -18.98,-7.84 -18.98,-18.777 l 0,-84.829 c 0,-54.871 49.1,-103.257 103.49,-103.257 59.41,0 105,50.918 105,103.046 l 0,85.086 c 0,9.512 -7.86,18.731 -19.34,18.731" /><path
             id="path48"
             style="fill:#ffffff;fill-opacity:1;fill-rule:nonzero;stroke:none"
             d="m 3653,279.629 c -32.93,0 -60.14,24.441 -64.49,56.191 l 0,18.071 c 4.35,31.687 31.59,56.078 64.49,56.078 36.03,0 65.24,-29.141 65.24,-65.137 0,-36.023 -29.21,-65.203 -65.24,-65.203 z m 0.57,168.508 c -24.84,-0.039 -47.85,-9.414 -65.58,-24.539 l 0,6.836 c 0,8.796 -8,17.781 -19.23,17.781 -11.83,-0.039 -20.5,-10.938 -20.36,-18.809 l 0.03,-250.015 c -0.11,-11.129 8.75,-19.422 19.67,-19.422 12.41,0 20.29,9.703 20.29,20.293 l 0.05,84.679 c 17.61,-14.871 42.2,-23.632 65.13,-23.632 56.95,0 103.07,50.472 103.07,103.293 0,57.558 -48.36,103.613 -103.07,103.535" /><path
             id="path50"
             style="fill:#ffffff;fill-opacity:1;fill-rule:nonzero;stroke:none"
             d="m 2859.99,279.629 c -36.07,0 -65.27,29.18 -65.27,65.203 0,35.996 29.2,65.137 65.27,65.137 35.98,0 65.24,-29.141 65.24,-65.137 0,-36.023 -29.26,-65.203 -65.24,-65.203 z m 84.27,168.586 c -11.26,0 -19.21,-8.985 -19.21,-17.781 l 0,-6.836 c -17.8,15.125 -40.75,24.5 -65.59,24.539 -54.72,0.078 -103.13,-45.977 -103.13,-103.535 0,-52.821 46.14,-103.293 103.13,-103.293 23.01,0 47.74,8.851 65.39,23.91 0,0 0.35,-7.93 0.67,-9.418 -3.03,-23.903 -20.36,-45.77 -50.07,-55.211 -19.97,-6.36 -77.42,7.199 -82.1,8.051 -13.5,2.39 -20.33,-9.27 -20.21,-19.532 0,-8.211 6.57,-14.738 19.98,-19 17.04,-5.418 46.85,-8.738 72.93,-9.07 19.59,-0.277 95.88,15.133 98.52,98.66 0.02,0.461 0,169.707 0,169.707 0.18,7.871 -8.52,18.77 -20.31,18.809" /></g></g></g></g></svg>