<?xml version="1.0" encoding="UTF-8" standalone="no"?>
<svg
   xmlns:dc="http://purl.org/dc/elements/1.1/"
   xmlns:cc="http://creativecommons.org/ns#"
   xmlns:rdf="http://www.w3.org/1999/02/22-rdf-syntax-ns#"
   xmlns:svg="http://www.w3.org/2000/svg"
   xmlns="http://www.w3.org/2000/svg"
   viewBox="0 0 300.42667 126.14667"
   height="126.14667"
   width="300.42667"
   xml:space="preserve"
   version="1.1"
   id="svg2"><metadata
     id="metadata8"><rdf:RDF><cc:Work
         rdf:about=""><dc:format>image/svg+xml</dc:format><dc:type
           rdf:resource="http://purl.org/dc/dcmitype/StillImage" /></cc:Work></rdf:RDF></metadata><defs
     id="defs6" /><g
     transform="matrix(1.3333333,0,0,-1.3333333,0,126.14667)"
     id="g10"><g
       transform="scale(0.1)"
       id="g12"><path
         id="path14"
         style="fill:#ffffff;fill-opacity:1;fill-rule:evenodd;stroke:none"
         d="m 42.1094,226.73 1974.83,0 0,670.102 -1974.83,0 0,-670.102 z" /><path
         id="path16"
         style="fill:#38b357;fill-opacity:1;fill-rule:evenodd;stroke:none"
         d="m 479.645,684.059 -132.989,-183.102 132.989,0 0,183.102 z m 96.187,-253.696 -18.867,0 0,-58.617 c 0,-16.18 -3.508,-28.203 -10.516,-36.086 -7.011,-7.875 -16.39,-11.816 -28.144,-11.816 -11.551,0 -20.875,4.047 -27.993,12.133 -7.113,8.085 -10.667,20.011 -10.667,35.769 l 0,58.617 -155.258,0 c -19.59,0 -34.282,4.516 -44.075,13.551 -9.792,9.031 -14.691,21.324 -14.691,36.871 0,3.992 0.723,8.039 2.164,12.137 1.442,4.094 3.606,8.398 6.5,12.918 2.883,4.515 5.875,8.875 8.969,13.082 3.09,4.199 6.902,9.344 11.441,15.441 l 163.918,223.442 c 10.719,14.703 19.532,25.367 26.442,31.984 6.906,6.617 15.207,9.93 24.898,9.93 31.34,0 47.012,-18.281 47.012,-54.836 l 0,-243.926 13.301,0 c 15.875,0 28.605,-2.207 38.195,-6.617 9.586,-4.414 14.383,-14.078 14.383,-28.996 0,-12.188 -3.922,-21.067 -11.754,-26.629 -7.84,-5.57 -19.594,-8.352 -35.258,-8.352 z M 1355.6,378.754 c -40.47,0 -45.8,32.777 -45.8,73.211 0,40.433 5.33,73.211 45.8,73.211 40.46,0 45.79,-32.778 45.79,-73.211 0,-40.434 -5.33,-73.211 -45.79,-73.211 z m 604.52,-18.305 c 0,15.164 -12.31,27.453 -27.48,27.453 l -54.96,0 c -40.47,0 -54.95,32.778 -54.95,73.211 l 0,64.063 82.43,0 c 15.18,0 27.48,12.289 27.48,27.453 l 0,9.152 c 0,15.16 -12.3,27.453 -27.48,27.453 l -82.43,0 0,183.028 c 0,15.164 -12.31,27.457 -27.48,27.457 l -9.16,0 c -15.18,0 -27.48,-12.293 -27.48,-27.457 l 0,-301.996 c 0,-1.047 0.19,-2.039 0.31,-3.055 -0.09,-2.035 -0.31,-4.039 -0.31,-6.098 0,-75.812 43.19,-137.269 119.07,-137.269 l 54.96,0 c 15.17,0 27.48,12.293 27.48,27.453 l 0,9.152 z m -247.31,82.363 c 0,1.047 -0.19,2.04 -0.31,3.055 0.09,2.035 0.31,4.039 0.31,6.098 0,75.812 -43.19,137.269 -119.07,137.269 l -54.96,0 c -15.17,0 -27.48,-12.293 -27.48,-27.453 l 0,-210.484 c 0,-15.16 12.31,-27.453 27.48,-27.453 l 9.16,0 c 15.18,0 27.48,12.293 27.48,27.453 l 0,173.879 18.32,0 c 40.47,0 54.96,-32.778 54.96,-73.211 l 0,-106.817 c 0.2,0.129 0.42,0.243 0.63,0.375 2.66,-12.386 13.66,-21.679 26.84,-21.679 l 9.16,0 c 15.18,0 27.48,12.293 27.48,27.453 l 0,91.515 z M 1355.6,589.234 c -75.88,0 -109.92,-61.457 -109.92,-137.269 0,-75.813 34.04,-137.274 109.92,-137.274 75.87,0 109.91,61.461 109.91,137.274 0,75.812 -34.04,137.269 -109.91,137.269 z m -128.24,-27.453 c 0,15.16 -12.3,27.453 -27.48,27.453 l -54.95,0 c -75.88,0 -119.07,-61.457 -119.07,-137.269 0,-2.059 0.21,-4.063 0.3,-6.098 -0.11,-1.015 -0.3,-2.008 -0.3,-3.055 l 0,-91.515 c 0,-15.16 12.3,-27.453 27.47,-27.453 l 9.16,0 c 13.19,0 24.19,9.293 26.85,21.679 0.2,-0.132 0.42,-0.246 0.63,-0.375 l 0,106.817 c 0,40.433 14.49,73.211 54.96,73.211 l 54.95,0 c 15.18,0 27.48,12.289 27.48,27.453 l 0,9.152 z m -192.35,210.481 c 0,15.164 -12.3,27.457 -27.47,27.457 l -54.962,0 c -75.879,0 -119.07,-61.461 -119.07,-137.274 0,-2.058 0.219,-4.058 0.308,-6.097 -0.117,-1.012 -0.308,-2.008 -0.308,-3.051 l 0,-302 c 0,-15.16 12.301,-27.453 27.476,-27.453 l 9.161,0 c 15.175,0 27.476,12.293 27.476,27.453 l 0,173.879 82.438,0 c 15.175,0 27.481,12.289 27.481,27.453 l 0,9.152 c 0,15.16 -12.306,27.453 -27.481,27.453 l -82.438,0 0,73.211 c 0,40.434 14.488,73.211 54.957,73.211 l 54.962,0 c 15.17,0 27.47,12.293 27.47,27.453 l 0,9.153 z M 696.117,730.73 c 0,58.317 -47.222,105.594 -105.472,105.594 l -302.262,0 c -58.25,0 -105.473,-47.277 -105.473,-105.594 l 0,-31.675 c 0,-75.817 -61.387,-137.274 -137.1131,-137.274 75.7261,0 137.1131,-61.461 137.1131,-137.273 l 0,-31.676 c 0,-58.316 47.223,-105.594 105.473,-105.594 l 302.262,0 c 58.25,0 105.472,47.278 105.472,105.594 l 0,337.898 z m 1392.233,-304.253 0,-157.543 c 0,-50.539 -41.01,-91.512 -91.59,-91.512 l -1905.1662,0 C 41.0078,177.422 0,218.395 0,268.934 l 0,585.691 c 0,50.543 41.0078,91.516 91.5938,91.516 l 1905.1662,0 c 50.58,0 91.59,-40.973 91.59,-91.516 l 0,-157.539 c 15.64,-77.207 83.51,-135.305 164.87,-135.305 -81.36,0 -149.23,-58.093 -164.87,-135.304" /><path
         id="path18"
         style="fill:#918f90;fill-opacity:1;fill-rule:evenodd;stroke:none"
         d="m 1835.12,68.0117 c -1.22,-0.7344 -3.11,-1.1055 -5.68,-1.1055 l -8.28,0 0,9.5469 7.84,0 c 1.47,0 2.7,-0.0976 3.7,-0.2929 1.01,-0.1954 1.82,-0.4844 2.46,-0.8672 0.63,-0.3828 1.08,-0.8672 1.37,-1.4571 0.28,-0.5898 0.42,-1.2734 0.42,-2.0586 0,-1.7734 -0.61,-3.0273 -1.83,-3.7656 z m 1.15,-16.3203 c -1.42,-0.8672 -3.58,-1.3008 -6.49,-1.3008 l -8.62,0 0,10.6133 8.11,0 c 1.69,0 3.12,-0.1055 4.3,-0.3125 1.17,-0.2031 2.11,-0.5195 2.82,-0.9531 0.71,-0.4258 1.22,-0.9766 1.54,-1.6485 0.31,-0.6718 0.47,-1.4726 0.47,-2.4062 0,-1.793 -0.71,-3.125 -2.13,-3.9922 z m 10.58,6.9453 c -0.33,0.9414 -0.86,1.7891 -1.57,2.5469 -0.71,0.7539 -1.59,1.418 -2.64,1.9883 -1.04,0.5664 -2.29,1 -3.73,1.3008 2.23,0.8554 3.89,1.9726 4.99,3.3437 1.09,1.3711 1.64,3 1.64,4.8867 0,1.4922 -0.36,2.8281 -1.07,4.0157 -0.71,1.1835 -1.74,2.1992 -3.09,3.039 -1.36,0.8399 -3.01,1.4805 -4.96,1.9297 -1.95,0.4492 -4.14,0.6719 -6.57,0.6719 l -17.38,0 0,-37.875 17.82,0 c 5.68,0 9.94,0.9687 12.79,2.914 2.86,1.9375 4.28,4.6914 4.28,8.2539 0,1.0469 -0.17,2.0391 -0.51,2.9844 z m -40.64,23.7227 -10.07,0 -7.78,-9.9375 c -0.43,-0.5586 -0.85,-1.1289 -1.27,-1.7071 -0.41,-0.5781 -0.82,-1.1367 -1.23,-1.6796 -0.41,0.5429 -0.81,1.1015 -1.22,1.6796 -0.4,0.5782 -0.82,1.1485 -1.25,1.7071 l -7.74,9.9375 -10.11,0 15.01,-17.9453 -16.33,-19.9297 10.11,0 8.79,11.4218 2.74,3.7774 11.63,-15.1992 10.04,0 -16.36,19.9297 15.04,17.9453 z m 55.04,-2.5508 -19.04,-71.98829 c -1.7,-6.74609 -6.85,-9.17969 -12.14,-7.097654 L 1744.82,44.8398 c -4.43,2.0938 -10.94,6 -7.01,12.2891 l 34.62,44.6801 c 3.5,4.179 6.31,8.285 12.14,7.093 l 69.68,-16.8043 c 5.29,-1.4375 8.59,-6.4258 7,-12.2891" /><path
         id="path20"
         style="fill:#918f90;fill-opacity:1;fill-rule:nonzero;stroke:none"
         d="m 1893.5,44.6406 c 1.82,0.5313 3.4,1.2969 4.74,2.3086 1.34,1.0039 2.38,2.2305 3.14,3.6641 0.75,1.4375 1.13,3.0625 1.13,4.875 0,1.414 -0.19,2.6523 -0.57,3.707 -0.37,1.0547 -0.9,1.9688 -1.57,2.7422 -0.67,0.7773 -1.48,1.4336 -2.43,1.9766 -0.95,0.539 -1.99,1.0156 -3.11,1.4257 -1.13,0.4102 -2.32,0.7618 -3.58,1.0625 -1.27,0.2969 -2.56,0.5977 -3.89,0.8985 -1.44,0.3164 -2.65,0.6328 -3.65,0.9531 -0.99,0.3125 -1.81,0.6523 -2.44,1.0195 -0.64,0.3633 -1.1,0.7891 -1.39,1.2735 -0.28,0.4843 -0.42,1.0703 -0.42,1.7617 0,0.7305 0.16,1.3828 0.49,1.9609 0.33,0.5782 0.81,1.0782 1.44,1.4961 0.63,0.4219 1.39,0.75 2.3,0.9805 0.9,0.2344 1.93,0.3516 3.09,0.3516 4.89,0 7.51,-1.9336 7.88,-5.793 l 6.97,0 c -0.1,1.8437 -0.51,3.4922 -1.25,4.9375 -0.73,1.4492 -1.75,2.6758 -3.05,3.6836 -1.3,1.0078 -2.86,1.7734 -4.69,2.2969 -1.82,0.5195 -3.85,0.7812 -6.08,0.7812 -2.05,0 -3.91,-0.2461 -5.6,-0.7422 -1.68,-0.4961 -3.14,-1.1797 -4.37,-2.0586 -1.22,-0.875 -2.19,-1.9258 -2.9,-3.1484 -0.71,-1.2227 -1.12,-2.5703 -1.23,-4.043 -0.04,-0.4492 -0.04,-0.8828 -0.01,-1.3047 0.02,-0.4179 0.07,-0.8359 0.12,-1.2422 0.2,-1.5898 0.68,-2.8945 1.44,-3.9218 0.75,-1.0274 1.76,-1.8985 3.01,-2.6172 1.26,-0.7188 2.73,-1.3242 4.41,-1.8203 1.69,-0.4961 3.55,-0.9844 5.6,-1.4688 1.4,-0.3555 2.63,-0.6953 3.68,-1.0234 1.05,-0.3242 1.92,-0.6992 2.61,-1.1172 0.69,-0.4219 1.21,-0.9023 1.56,-1.4414 0.35,-0.543 0.53,-1.1875 0.53,-1.9336 0,-0.8399 -0.19,-1.5899 -0.57,-2.25 -0.38,-0.668 -0.92,-1.2266 -1.62,-1.6797 -0.7,-0.4609 -1.55,-0.8086 -2.55,-1.0547 -1.01,-0.2383 -2.13,-0.3633 -3.36,-0.3633 -1.28,0 -2.46,0.1524 -3.56,0.4493 -1.09,0.3007 -2.06,0.7461 -2.88,1.3437 -0.83,0.5977 -1.5,1.3438 -2.01,2.2422 -0.51,0.8945 -0.81,1.9453 -0.93,3.1602 l -6.88,0 c 0.24,-4.2735 1.74,-7.5313 4.51,-9.7696 2.76,-2.2383 6.74,-3.3594 11.94,-3.3594 2.17,0 4.17,0.2657 6,0.8008" /><path
         id="path22"
         style="fill:#918f90;fill-opacity:1;fill-rule:nonzero;stroke:none"
         d="m 1916.54,49.6367 c -0.79,0.375 -1.45,0.9297 -2.01,1.6758 -0.55,0.75 -0.98,1.6914 -1.28,2.8281 -0.31,1.1406 -0.46,2.4844 -0.46,4.0352 0,1.5469 0.15,2.8945 0.46,4.043 0.3,1.1484 0.73,2.0937 1.28,2.8398 0.56,0.7461 1.22,1.3086 2.01,1.6797 0.78,0.375 1.66,0.5625 2.64,0.5625 0.94,0 1.8,-0.1875 2.58,-0.5625 0.78,-0.3711 1.45,-0.9336 2.01,-1.6797 0.55,-0.7461 0.97,-1.6914 1.27,-2.8398 0.29,-1.1485 0.44,-2.4961 0.44,-4.043 0,-1.5508 -0.15,-2.8946 -0.44,-4.0352 -0.3,-1.1367 -0.72,-2.0781 -1.27,-2.8281 -0.56,-0.7461 -1.23,-1.3008 -2.01,-1.6758 -0.78,-0.375 -1.64,-0.5625 -2.58,-0.5625 -0.98,0 -1.86,0.1875 -2.64,0.5625 z m -2.96,21.9453 c -1.67,-0.6172 -3.09,-1.5312 -4.26,-2.7422 -1.17,-1.2148 -2.08,-2.7109 -2.72,-4.4921 -0.65,-1.7852 -0.97,-3.8399 -0.97,-6.1719 0,-2.3164 0.32,-4.3633 0.97,-6.1446 0.64,-1.7851 1.55,-3.2851 2.72,-4.496 1.17,-1.211 2.59,-2.1329 4.26,-2.7579 1.67,-0.625 3.53,-0.9375 5.6,-0.9375 2.04,0 3.89,0.3125 5.55,0.9375 1.66,0.625 3.08,1.5469 4.25,2.7579 1.17,1.2109 2.07,2.7109 2.71,4.496 0.63,1.7813 0.95,3.8282 0.95,6.1446 0,2.332 -0.32,4.3867 -0.95,6.1719 -0.64,1.7812 -1.54,3.2773 -2.71,4.4921 -1.17,1.211 -2.59,2.125 -4.25,2.7422 -1.66,0.6172 -3.51,0.9258 -5.55,0.9258 -2.07,0 -3.93,-0.3086 -5.6,-0.9258" /><path
         id="path24"
         style="fill:#918f90;fill-opacity:1;fill-rule:nonzero;stroke:none"
         d="m 1950.11,66.6562 0,5.2344 -4.87,0 0,1.875 c 0,1.418 0.24,2.4297 0.72,3.0391 0.48,0.6055 1.26,0.9062 2.32,0.9062 0.54,0 1.06,-0.0312 1.58,-0.0937 0.52,-0.0664 1.01,-0.1367 1.49,-0.211 l 0,5.4024 c -0.62,0.1289 -1.29,0.2266 -2,0.293 -0.71,0.0664 -1.52,0.0976 -2.42,0.0976 -2.93,0 -5.11,-0.7461 -6.54,-2.2383 -1.43,-1.4921 -2.14,-3.8281 -2.14,-7 l 0,-2.0703 -3.93,0 0,-5.2344 3.93,0 0,-22.1718 6.99,0 0,22.1718 4.87,0" /><path
         id="path26"
         style="fill:#918f90;fill-opacity:1;fill-rule:nonzero;stroke:none"
         d="m 1968.84,49.3828 c -0.81,-0.0937 -1.58,-0.1406 -2.29,-0.1406 -0.41,0 -0.77,0.0547 -1.08,0.168 -0.32,0.1132 -0.58,0.3242 -0.8,0.6328 -0.23,0.3086 -0.39,0.7343 -0.5,1.2851 -0.11,0.5508 -0.17,1.2657 -0.17,2.1446 l 0,13.1835 4.4,0 0,5.2344 -4.4,0 0,6.8282 -6.99,0 0,-6.8282 -3.48,0 0,-5.2344 3.48,0 0,-10.582 c 0,-1.2148 0,-2.3554 0.01,-3.4297 0.01,-1.0742 0.09,-2.0586 0.22,-2.9531 0.14,-0.8945 0.36,-1.6953 0.65,-2.3906 0.3,-0.7031 0.73,-1.293 1.32,-1.7774 0.58,-0.4882 1.32,-0.8632 2.22,-1.1211 0.9,-0.2617 2.03,-0.3945 3.37,-0.3945 0.78,0 1.49,0.0391 2.15,0.1133 0.65,0.0742 1.28,0.1797 1.89,0.3086 l 0,4.9531" /><path
         id="path28"
         style="fill:#918f90;fill-opacity:1;fill-rule:nonzero;stroke:none"
         d="m 2004.1,71.8906 -4.48,-19.9883 -1.99,7.9219 -3.34,12.0664 -6.09,0 -5.33,-19.9883 -4.45,19.9883 -6.97,0 7.96,-27.4062 6.75,0 5.08,19.2031 5.09,-19.2031 6.75,0 7.93,27.4062 -6.91,0" /><path
         id="path30"
         style="fill:#918f90;fill-opacity:1;fill-rule:nonzero;stroke:none"
         d="m 2030.72,44.4844 6.93,0 0,17.7187 c 0,2.2227 -0.26,3.9766 -0.8,5.2657 -0.53,1.2851 -1.34,2.2851 -2.43,2.996 -1.16,0.7618 -2.46,1.2969 -3.91,1.5938 -1.45,0.2969 -3.12,0.4492 -5.02,0.4492 -7.81,0 -11.9,-2.8203 -12.27,-8.457 l 6.3,0 c 0.13,1.3437 0.66,2.3554 1.59,3.039 0.93,0.6797 2.31,1.0196 4.13,1.0196 1.02,0 1.88,-0.1055 2.6,-0.3203 0.72,-0.2149 1.25,-0.5664 1.58,-1.0508 0.31,-0.2774 0.55,-0.6055 0.72,-0.9805 0.16,-0.3711 0.29,-0.7812 0.38,-1.2305 0.1,-0.6679 0.14,-1.7265 0.14,-3.164 l -2.35,0 c -10.8,0 -16.2,-3.1719 -16.2,-9.5156 0,-1.3047 0.24,-2.461 0.74,-3.4571 0.48,-1 1.15,-1.832 1.99,-2.5078 0.83,-0.668 1.82,-1.1797 2.97,-1.5234 1.14,-0.3477 2.37,-0.5196 3.7,-0.5196 1.92,0 3.63,0.2618 5.14,0.7852 1.51,0.5195 2.87,1.3125 4.07,2.3789 l 0,-2.5195 z m -0.06,7.1953 c -0.35,-0.4844 -0.77,-0.9258 -1.26,-1.3281 -0.48,-0.4024 -1.02,-0.7422 -1.59,-1.0118 -0.57,-0.2695 -1.18,-0.4843 -1.82,-0.6445 -0.64,-0.1562 -1.3,-0.2383 -1.96,-0.2383 -1.44,0 -2.59,0.3125 -3.46,0.9414 -0.87,0.625 -1.3,1.5821 -1.3,2.8672 0,1.7188 0.72,2.9532 2.16,3.711 1.43,0.7539 3.61,1.1328 6.52,1.1328 l 2.71,0 0,-5.4297" /><path
         id="path32"
         style="fill:#918f90;fill-opacity:1;fill-rule:nonzero;stroke:none"
         d="m 2058.35,72.3086 c -0.39,0.0742 -0.76,0.1289 -1.11,0.1562 -0.35,0.0274 -0.7,0.043 -1.05,0.043 -1.4,0 -2.74,-0.3984 -4.03,-1.1914 -1.29,-0.793 -2.47,-2.0117 -3.54,-3.6523 l 0,4.2265 -6.83,0 0,-27.4062 7.02,0 0,18.3633 c 0.88,1.1953 1.86,2.0742 2.93,2.6445 1.07,0.5703 2.2,0.8555 3.4,0.8555 0.66,0 1.26,-0.0352 1.8,-0.0977 0.53,-0.0664 1,-0.1641 1.41,-0.293 l 0,6.3516" /><path
         id="path34"
         style="fill:#918f90;fill-opacity:1;fill-rule:nonzero;stroke:none"
         d="m 2066.14,61.0039 c 0.27,2.3828 0.96,4.168 2.06,5.3438 1.09,1.1757 2.5,1.7617 4.21,1.7617 1.73,0 3.15,-0.586 4.24,-1.7617 1.1,-1.1758 1.79,-2.961 2.07,-5.3438 l -12.58,0 z m 11.26,-16.5898 c 1.41,0.3828 2.66,0.9531 3.73,1.707 1.08,0.7578 1.98,1.6836 2.69,2.7851 0.7,1.1055 1.19,2.3594 1.45,3.7813 l -6.55,0 c -0.46,-1.5508 -1.2,-2.6406 -2.22,-3.2773 -1.01,-0.6329 -2.25,-0.9532 -3.7,-0.9532 -0.94,0 -1.81,0.1602 -2.6,0.4766 -0.79,0.3203 -1.48,0.8086 -2.07,1.4726 -0.59,0.6602 -1.07,1.5118 -1.43,2.5469 -0.36,1.0352 -0.56,2.2735 -0.62,3.711 l 19.74,0 0,1.707 c 0,2.2578 -0.31,4.2656 -0.94,6.0312 -0.63,1.7618 -1.52,3.2461 -2.7,4.4493 -1.17,1.207 -2.58,2.1132 -4.23,2.7304 -1.64,0.6172 -3.49,0.9258 -5.54,0.9258 -2.14,0 -4.04,-0.3242 -5.71,-0.9687 -1.67,-0.6446 -3.08,-1.5782 -4.24,-2.8125 -1.16,-1.2305 -2.05,-2.7344 -2.67,-4.5078 -0.62,-1.7735 -0.93,-3.7891 -0.93,-6.043 0,-2.2266 0.32,-4.2188 0.94,-5.9922 0.63,-1.7734 1.54,-3.2774 2.72,-4.5078 1.17,-1.2305 2.62,-2.1797 4.35,-2.8399 1.72,-0.664 3.7,-0.9961 5.93,-0.9961 1.66,0 3.19,0.1914 4.6,0.5743" /><path
         id="path36"
         style="fill:#918f90;fill-opacity:1;fill-rule:nonzero;stroke:none"
         d="m 1674.36,50.3984 7.15,0 c 2.41,0 4.2,0.4336 5.37,1.3008 1.18,0.8711 1.77,2.1992 1.77,3.9922 0,0.9336 -0.13,1.7383 -0.39,2.4102 -0.26,0.6718 -0.69,1.2226 -1.28,1.6523 -0.58,0.4297 -1.36,0.75 -2.34,0.9531 -0.97,0.2032 -2.15,0.3086 -3.55,0.3086 l -6.73,0 0,-10.6172 z m 0,16.5274 6.87,0 c 2.13,0 3.69,0.3711 4.7,1.1054 1.01,0.7383 1.52,1.9961 1.52,3.7696 0,0.7851 -0.12,1.4687 -0.35,2.0586 -0.24,0.5859 -0.62,1.0742 -1.14,1.457 -0.52,0.3828 -1.2,0.6719 -2.03,0.8672 -0.83,0.1953 -1.85,0.293 -3.07,0.293 l -6.5,0 0,-9.5508 z m 21.71,-11.2578 c 0,-3.5703 -1.18,-6.3242 -3.54,-8.2657 -2.36,-1.9414 -5.9,-2.914 -10.6,-2.914 l -14.77,0 0,37.8984 14.4,0 c 2.02,0 3.84,-0.2226 5.45,-0.6679 1.62,-0.4493 2.99,-1.0977 4.11,-1.9376 1.12,-0.8398 1.97,-1.8515 2.56,-3.039 0.59,-1.1836 0.88,-2.5234 0.88,-4.0156 0,-1.8868 -0.45,-3.5196 -1.36,-4.8907 -0.9,-1.3711 -2.28,-2.4882 -4.13,-3.3476 1.2,-0.3008 2.23,-0.7305 3.1,-1.3008 0.86,-0.5703 1.59,-1.2344 2.18,-1.9883 0.59,-0.7578 1.02,-1.6094 1.3,-2.5508 0.28,-0.9453 0.42,-1.9375 0.42,-2.9804" /><path
         id="path38"
         style="fill:#918f90;fill-opacity:1;fill-rule:nonzero;stroke:none"
         d="m 1703.97,39.1953 c 1.18,0 2.17,0.4297 2.99,1.2852 0.81,0.8633 1.53,2.1953 2.17,4.0078 l -10.14,27.4258 7.36,0 c 0.55,-1.8321 1.09,-3.6524 1.63,-5.4649 0.54,-1.8086 1.11,-3.625 1.71,-5.4336 l 2.8,-9.4414 2.8,9.4414 3.33,10.8985 7.31,0 -10.05,-27.4258 c -0.58,-1.586 -1.16,-3.0625 -1.75,-4.4258 -0.59,-1.3633 -1.27,-2.5391 -2.05,-3.5313 -0.77,-0.9882 -1.69,-1.7617 -2.74,-2.3242 -1.06,-0.5586 -2.36,-0.8398 -3.91,-0.8398 -0.84,0 -1.62,0.043 -2.34,0.125 -0.72,0.0859 -1.39,0.2187 -2,0.4062 l 0,5.7735 c 0.99,-0.3164 1.95,-0.4766 2.88,-0.4766" /></g></g></svg>