<?xml version="1.0"?>
<svg xmlns="http://www.w3.org/2000/svg" viewBox="0 0 789 260">
 <g>
  <path id="svg_1" d="m440.080017,16.109985c0.5,-3.649994 4.5,-5.98999 7.98999,-5.019989c4.159973,0.73999 6.429993,4.660004 9.669983,6.950012c7.850037,6.289978 15.460022,12.899994 23.450012,19.019989c3.469971,-1.850006 7.400024,-2.389984 11.059998,-3.75c5.640015,-2.169983 11.359985,-4.160004 17.25,-5.549988c3.869995,-1.76001 8.690002,-2.850006 12.640015,-0.890015c3.599976,2.119995 2.919983,6.589996 2.929993,10.140015c0.099976,2.449982 -0.299988,4.869995 -1.130005,7.169983c7.969971,-2.649994 15.960022,-5.23999 24.099976,-7.380005c3.860046,-1 8.110046,2.070007 7.809998,6.180023c-0.469971,4.359985 -0.75,8.769989 -1.940002,13.009979c7.730042,-2.849976 15.620056,-5.199982 23.460022,-7.709991c2.48999,-0.720001 5.789978,-0.389984 7.150024,2.140015c1.690002,2.169983 1.380005,4.970001 0.929993,7.48999c-0.460022,6.459991 -1.940002,12.790009 -3.369995,19.089996c65.639954,0 131.279968,0 196.919983,0c0,48.670013 0,97.329987 0,146c-79.190002,0 -158.380005,0 -237.570007,0c-8.559998,4.459991 -18.789978,6.98999 -28.23999,4.089996c-3.169983,3.769989 -8.02002,5.190002 -12,7.880005c-7.320007,3.01001 -15.440002,3.940002 -23.27002,2.649994c-2.889954,2.220001 -6.019958,4.110016 -8.889954,6.380005c-10.220032,4.839996 -22.330017,8.380005 -33.420044,4.380005c-3.22998,-1.440002 -6.719971,-2.209991 -9.859985,-3.830017c-5.460022,-3.48999 -9.900024,-8.269989 -14.340027,-12.940002c-1.799988,-2.959991 -3.819946,-5.759979 -5.75,-8.629974c-131.219971,0.049988 -262.439972,0.009979 -393.659973,0.019989c0,-48.670013 0,-97.329987 0,-146c138.679993,0 277.350006,0 416.030029,0c2.839966,-0.049988 5.699951,0.149994 8.539978,-0.089996c2.47998,-1.209991 4.72998,-2.809998 7.179993,-4.059998c-5.450012,-4.190002 -13.26001,-9.160004 -11.679993,-17.170013c2.72998,-13.179993 5.179993,-26.419983 8.01001,-39.570007m-2.630005,42.430023c2.089966,3.819977 5.779968,6.279999 8.940002,9.149994c2.890015,2.630005 5.809998,5.230011 8.839966,7.709991c-5.289978,1.640015 -10.709961,3.360016 -15.23999,6.660004c-4.789978,3.230011 -8.97998,8.130005 -9.789978,14.019989c-7.140015,36.279999 -14.280029,72.560028 -21.419983,108.840027c-0.76001,3.789978 0.209961,7.689972 1.409973,11.289978c3.299988,10.040009 10.77002,18.52002 19.98999,23.570007c4.359985,1.73999 8.720032,4.170013 13.549988,4.140015c12.900024,0.569977 25.730042,-5.400024 34.160034,-15.080017c2.25,-2.940002 4.72998,-6.019989 5.059998,-9.859985l0.299988,-0.680023c7.119995,-37.179993 14.869995,-74.25 21.909973,-111.449982c-0.049988,-10.440002 -7.969971,-18.570007 -15.589966,-24.720001c7.390015,-2.51001 14.76001,-5.059998 22.029968,-7.910004c2.820007,-14.26001 5.880005,-28.48999 8.280029,-42.829987c-11,2.049988 -21.400024,6.579987 -32.130005,9.709991c-3.429993,0.820007 -7.47998,3.859985 -10.580017,0.759979c-10.529968,-8.359985 -20.529968,-17.399994 -31.179993,-25.609985c-2.580017,14.140015 -5.23999,28.299988 -8.539978,42.290009m85.880005,-8.440002c-1.950012,7.160004 -2.970032,14.529999 -4.400024,21.799988c-0.549988,2.619995 -1.320007,5.550018 -3.72998,7.089996c-4.480042,2.860016 -9.730042,4.130005 -14.76001,5.630005c8.340027,6.320007 12.659973,17.899994 10.200012,28.149994c-7.369995,36.02002 -14.27002,72.130005 -21.440002,108.190002c-0.690002,4.619995 -3.890015,8.200012 -6.700012,11.710022c11.090027,0.779999 22.219971,-4.26001 29.650024,-12.400024c2.709961,-2.849976 5.069946,-6.279999 5.559998,-10.269989c6.209961,-31.269989 12.47998,-62.529999 18.639954,-93.809998c0.710022,-3.380005 1.300049,-6.809998 1.030029,-10.269989c-2.22998,-7.640015 -7.669983,-13.740021 -13.97998,-18.350006c5.630005,-2.190002 11.419983,-3.910004 17.079956,-6.02002c1.220032,-0.629974 3.130005,-0.899994 3.280029,-2.569977c2.070007,-10.180023 3.77002,-20.430023 6,-30.580017c0.47998,-2.220001 0.880005,-4.47998 0.869995,-6.759979c-9.289978,2.179993 -18.130005,5.879974 -27.299988,8.459991m30.369995,11.47998c-1.27002,5.910004 -2.280029,11.880005 -3.540039,17.800018c-1.079956,4.48999 -5.449951,7.089996 -9.699951,7.98999c-2.119995,1.279999 -4.580017,1.75 -6.980042,2.179993c2.48999,1.77002 4.410034,4.180023 5.880005,6.860016c2.76001,4.790009 5.609985,10.339996 4.290039,16.029999c-6.920044,34.059998 -13.570007,68.179993 -20.350037,102.279999c-1.769958,2.940002 -3.799988,5.720001 -5.98999,8.369995c7.720032,0 15.77002,-1.01001 22.27002,-5.549988c5.159973,-3.680023 10.669983,-8.320007 11.789978,-14.920013c5.840027,-29.559998 11.77002,-59.119995 17.650024,-88.679993c0.119995,-8.450012 -6.309998,-15.220001 -12.630005,-20.040009c5.269958,-1.919983 10.599976,-3.669983 15.859985,-5.600006c1.47998,-0.369995 2.359985,-1.5 2.429993,-3.029999c2.160034,-10.649994 4.25,-21.319977 6.26001,-32c-9.309998,1.920013 -18.130005,5.640015 -27.23999,8.309998m-518.76001,35.420013c-1.25,35 -2.559998,70 -4.070007,105c3.080002,0 6.160004,0 9.240005,0c4.569992,-12.119995 9.130005,-24.23999 13.699997,-36.359985c6.130005,-15.640015 11.460007,-31.600006 17.720001,-47.180023c0.240005,10.52002 -0.589996,21.029999 -0.600006,31.540009c-0.049988,17.329987 -0.109985,34.670013 -0.199997,52c3.090012,0 6.180008,0 9.270004,0c12.190002,-35 24.429993,-69.98999 36.619995,-104.98999c-3.159988,-0.02002 -6.319992,-0.01001 -9.479996,-0.01001c-7.929993,23.769989 -16.330002,47.390015 -23.850006,71.299988c-1.619995,4.779999 -2.829987,9.730011 -4.939987,14.340027c-0.220001,-8.560028 0.459991,-17.110016 0.720001,-25.660004c0.359985,-19.990021 0.579987,-39.990021 1.009995,-59.980011c-2.869995,0 -5.740005,-0.01001 -8.610001,0.019989c-8.029999,21.52002 -16.169998,43 -24.149994,64.550018c-2.720001,6.97998 -4.970001,14.149994 -8.030014,20.98999c0.01001,-2.549988 0.130005,-5.089996 0.350006,-7.619995c2.009995,-25.950012 3.080002,-51.959991 4.570007,-77.940002c-3.090012,0 -6.180008,0 -9.270004,0m295.299988,0.089996c-5.279999,0.390015 -10.75,1.720001 -14.869995,5.230011c-5.75,4.829987 -8.48999,12.22998 -9.919983,19.410004c-3.200012,16.459991 -6.370026,32.940002 -9.570007,49.410004c-1.440002,7.319977 -2.320007,15.529999 1.690002,22.23999c2.579987,4.790009 7.589996,7.799988 12.839996,8.779999c7.820007,1.51001 16.609985,1.179993 23.410004,-3.390015c6.399994,-4.649994 9.600006,-12.429993 11.100006,-19.959991c3.379974,-17.639984 6.669983,-35.299988 10.049988,-52.940002c1.329987,-7.149994 1.070007,-15.290009 -3.690002,-21.190002c-4.889984,-6.309998 -13.480011,-7.98999 -21.040009,-7.589996m-203.009995,0.920013c-6.659988,34.679993 -13.470001,69.329987 -20.220001,103.98999c14.5,0 29,0 43.500015,0c0.529999,-2.670013 0.97998,-5.339996 1.539978,-8c-11.509979,0 -23.019989,0 -34.539993,0c2.680008,-13.649994 5.310013,-27.309998 7.960007,-40.970001c10.069992,-0.019989 20.130005,0.089996 30.200012,-0.070007c0.519989,-2.98999 1.039978,-5.97998 1.629974,-8.959991c-10.059998,-0.01001 -20.119995,0.019989 -30.189987,-0.019989c2.490005,-12.309998 4.899994,-24.630005 7.360001,-36.950012c11.5,0.019989 23.01001,0 34.519989,0.01001c0.559998,-3.02002 1.200012,-6.02002 1.75,-9.040009c-14.509979,0 -29.009979,-0.01001 -43.509995,0.01001m53.860001,-0.01001c-6.709991,34.679993 -13.449982,69.350006 -20.26001,104c7.060028,-0.019989 14.130005,0.019989 21.190002,0c7.26001,-0.059998 14.860016,-1.720001 20.559998,-6.459991c7.320007,-5.950012 10.920013,-15.350006 11.940002,-24.51001c0.800018,-6.190002 1.190002,-12.929993 -1.889984,-18.600006c-1.450012,-2.690002 -4.360016,-3.959991 -6.910004,-5.329987c3.389984,-1.480011 6.829987,-3.130005 9.429993,-5.850006c5.050018,-5.019989 7.059998,-12.25 7.490021,-19.179993c0.559998,-6.309998 0.109985,-13.369995 -4.25,-18.369995c-4.060028,-4.580017 -10.570007,-5.470001 -16.350006,-5.690002c-6.980011,-0.050018 -13.970001,0.009979 -20.950012,-0.01001m61.600006,0c-6.799988,34.649994 -13.529999,69.320007 -20.26001,103.98999c5.290009,0.02002 10.580017,0 15.880005,0.01001c4.269989,-21.089996 7.830017,-42.329987 12.440002,-63.339996c4.149994,21.109985 8.329987,42.230011 12.589996,63.329987c4.700012,0.080017 9.399994,0.040009 14.110016,0.050018c6.769989,-34.670013 13.549988,-69.339996 20.23999,-104.029999c-5.23999,-0.02002 -10.480011,-0.01001 -15.720001,-0.01001c-4.179993,21.850006 -7.850006,43.799988 -12.369995,65.579987c-1.920013,-8.709991 -2.940002,-17.589996 -4.690002,-26.329987c-2.630005,-13.079987 -5.220001,-26.170013 -7.830017,-39.25c-4.799988,0 -9.589996,0 -14.389984,0m125.109985,0c-1.069977,5 -1.98999,10.040009 -3.069977,15.040009c5.669983,0 11.339996,-0.01001 17.019989,0c-5.809998,29.660004 -11.529999,59.329987 -17.269989,89c5.289978,0 10.579987,-0.01001 15.869995,0c5.790009,-29.660004 11.540009,-59.330017 17.249969,-89c5.670044,-0.02002 11.340027,0.049988 17.01001,-0.070007c0.960022,-4.98999 2,-9.970001 2.960022,-14.959991c-16.590027,-0.029999 -33.179993,0 -49.77002,-0.01001m238.040039,-0.01001c-6.800049,34.660004 -13.5,69.350006 -20.280029,104.02002c2.059998,-0.02002 4.140015,-0.02002 6.220032,-0.02002c5.759949,-29.529999 11.309998,-59.099976 17.189941,-88.589996c6.900024,29.480011 13.390015,59.070007 20.080017,88.600006c2,0 4.01001,-0.01001 6.030029,0c6.779968,-34.660004 13.469971,-69.339996 20.279968,-103.98999c-2.089966,-0.01001 -4.169983,-0.01001 -6.23999,-0.01001c-5.659973,29.190002 -11.279968,58.390015 -17.150024,87.540009c-7,-29.110016 -13.519958,-58.350006 -20.259949,-87.52002c-1.960022,-0.019989 -3.920044,-0.029999 -5.869995,-0.029999m65.23999,0.01001c-6.700012,34.679993 -13.440002,69.339996 -20.25,104c14.159973,0 28.309998,0 42.469971,0c0.359985,-2 0.73999,-3.98999 1.109985,-5.98999c-12.069946,-0.029999 -24.139954,0.009979 -36.209961,-0.02002c2.959961,-14.970001 5.799988,-29.970001 8.719971,-44.949982c10.610046,0 21.220032,0 31.830017,0c0.369995,-2.02002 0.75,-4.029999 1.159973,-6.040009c-10.599976,-0.01001 -21.199951,0.019989 -31.799988,-0.019989c2.76001,-13.640015 5.350037,-27.309998 8.150024,-40.950012c11.97998,0.019989 23.959961,0.01001 35.940002,0.01001c0.459961,-2.01001 0.919983,-4.02002 1.380005,-6.029999c-14.170044,-0.029999 -28.330017,0 -42.5,-0.01001m45.97998,0c-0.440002,2.01001 -0.900024,4.029999 -1.369995,6.040009c6.659973,0 13.330017,0 19.98999,0c-6.369995,32.639984 -12.549988,65.319977 -18.940002,97.959991c2.059998,-0.01001 4.130005,0 6.210022,0c6.309998,-32.660004 12.659973,-65.309998 19.039978,-97.959991c6.600037,-0.01001 13.200012,0 19.809998,0c0.419983,-2.02002 0.869995,-4.029999 1.350037,-6.040009c-15.369995,0 -30.730042,0 -46.090027,0m-151.179993,96c-0.559998,2.660004 -1.119995,5.320007 -1.619995,8c2.580017,-0.01001 5.179993,0 7.77002,0c0.459961,-2.670013 1.019958,-5.320007 1.47998,-7.98999c-2.549988,-0.01001 -5.090027,-0.01001 -7.630005,-0.01001z" fill="#fff600"/>
  <path id="svg_2" d="m437.450012,58.540009c3.299988,-13.990021 5.959961,-28.149994 8.539978,-42.290009c10.650024,8.209991 20.650024,17.25 31.179993,25.609985c3.100037,3.100006 7.150024,0.060028 10.580017,-0.759979c10.72998,-3.130005 21.130005,-7.660004 32.130005,-9.709991c-2.400024,14.339996 -5.460022,28.569977 -8.280029,42.829987c-7.269958,2.850006 -14.639954,5.399994 -22.029968,7.910004c7.619995,6.149994 15.539978,14.279999 15.589966,24.720001c-7.039978,37.199982 -14.789978,74.269989 -21.909973,111.449982l-0.299988,0.680023c-0.330017,3.839996 -2.809998,6.919983 -5.059998,9.859985c-8.429993,9.679993 -21.26001,15.649994 -34.160034,15.080017c-4.829956,0.029999 -9.190002,-2.400024 -13.549988,-4.140015c-9.219971,-5.049988 -16.690002,-13.529999 -19.98999,-23.570007c-1.200012,-3.600006 -2.169983,-7.5 -1.409973,-11.289978c7.139954,-36.279999 14.279968,-72.560028 21.419983,-108.840027c0.809998,-5.889984 5,-10.789978 9.789978,-14.019989c4.530029,-3.299988 9.950012,-5.019989 15.23999,-6.660004c-3.029968,-2.47998 -5.949951,-5.079987 -8.839966,-7.709991c-3.160034,-2.869995 -6.850037,-5.330017 -8.940002,-9.149994z" fill="#000000"/>
  <path id="svg_3" d="m523.330017,50.100006c9.169983,-2.580017 18.01001,-6.279999 27.299988,-8.459991c0.01001,2.279999 -0.390015,4.539978 -0.869995,6.759979c-2.22998,10.149994 -3.929993,20.399994 -6,30.580017c-0.150024,1.669983 -2.059998,1.940002 -3.280029,2.569977c-5.659973,2.110016 -11.449951,3.830017 -17.079956,6.02002c6.309998,4.609985 11.75,10.709991 13.97998,18.350006c0.27002,3.459991 -0.320007,6.889984 -1.030029,10.269989c-6.159973,31.279999 -12.429993,62.540009 -18.639954,93.809998c-0.490051,3.98999 -2.850037,7.420013 -5.559998,10.269989c-7.430054,8.140015 -18.559998,13.180023 -29.650024,12.400024c2.809998,-3.51001 6.01001,-7.090027 6.700012,-11.710022c7.169983,-36.059998 14.070007,-72.169983 21.440002,-108.190002c2.459961,-10.25 -1.859985,-21.829987 -10.200012,-28.149994c5.029968,-1.5 10.279968,-2.769989 14.76001,-5.630005c2.409973,-1.539978 3.179993,-4.470001 3.72998,-7.089996c1.429993,-7.269989 2.450012,-14.639984 4.400024,-21.799988z" fill="#000000"/>
  <path id="svg_4" d="m553.700012,61.579987c9.109985,-2.669983 17.929993,-6.389984 27.23999,-8.309998c-2.01001,10.680023 -4.099976,21.350006 -6.26001,32c-0.070007,1.529999 -0.950012,2.660004 -2.429993,3.029999c-5.26001,1.930023 -10.590027,3.680023 -15.859985,5.600006c6.320007,4.820007 12.75,11.589996 12.630005,20.040009c-5.880005,29.559998 -11.809998,59.119995 -17.650024,88.679993c-1.119995,6.600006 -6.630005,11.23999 -11.789978,14.920013c-6.5,4.539978 -14.549988,5.549988 -22.27002,5.549988c2.190002,-2.649994 4.220032,-5.429993 5.98999,-8.369995c6.780029,-34.100006 13.429993,-68.220001 20.350037,-102.279999c1.319946,-5.690002 -1.530029,-11.23999 -4.290039,-16.029999c-1.469971,-2.679993 -3.390015,-5.089996 -5.880005,-6.860016c2.400024,-0.429993 4.860046,-0.899994 6.980042,-2.179993c4.25,-0.899994 8.619995,-3.5 9.699951,-7.98999c1.26001,-5.920013 2.27002,-11.890015 3.540039,-17.800018z" fill="#000000"/>
  <path id="svg_5" d="m34.940002,97c3.089996,0 6.179993,0 9.270004,0c-1.490005,25.980011 -2.560013,51.98999 -4.570007,77.940002c-0.220001,2.529999 -0.339996,5.070007 -0.350006,7.619995c3.060013,-6.839996 5.310013,-14.01001 8.030014,-20.98999c7.979996,-21.550018 16.119995,-43.029999 24.149994,-64.550018c2.869995,-0.029999 5.740005,-0.019989 8.610001,-0.019989c-0.430008,19.98999 -0.650009,39.98999 -1.009995,59.980011c-0.26001,8.549988 -0.940002,17.099976 -0.720001,25.660004c2.110001,-4.610016 3.319992,-9.560028 4.939987,-14.340027c7.520004,-23.909973 15.920013,-47.529999 23.850006,-71.299988c3.160004,0 6.320007,-0.01001 9.479996,0.01001c-12.190002,35 -24.429993,69.98999 -36.619995,104.98999c-3.089996,0 -6.179993,0 -9.270004,0c0.090012,-17.329987 0.150009,-34.670013 0.199997,-52c0.01001,-10.51001 0.840012,-21.019989 0.600006,-31.540009c-6.259995,15.580017 -11.589996,31.540009 -17.720001,47.180023c-4.569992,12.119995 -9.130005,24.23999 -13.699997,36.359985c-3.080002,0 -6.160004,0 -9.240005,0c1.51001,-35 2.820007,-70 4.070007,-105z" fill="#000000"/>
  <path id="svg_6" d="m330.23999,97.089996c7.559998,-0.399994 16.150024,1.279999 21.040009,7.589996c4.76001,5.899994 5.019989,14.040009 3.690002,21.190002c-3.380005,17.640015 -6.670013,35.300018 -10.049988,52.940002c-1.5,7.529999 -4.700012,15.309998 -11.100006,19.959991c-6.800018,4.570007 -15.589996,4.900024 -23.410004,3.390015c-5.25,-0.980011 -10.26001,-3.98999 -12.839996,-8.779999c-4.01001,-6.709991 -3.130005,-14.920013 -1.690002,-22.23999c3.199982,-16.470001 6.369995,-32.950012 9.570007,-49.410004c1.429993,-7.180023 4.169983,-14.580017 9.919983,-19.410004c4.119995,-3.51001 9.589996,-4.839996 14.869995,-5.230011m-2.769989,16.529999c-3.73999,1.559998 -5.350006,5.709991 -6.089996,9.399994c-3.48999,17.700012 -7.089996,35.380005 -10.529999,53.080017c-0.940002,3.839996 0.139984,8.97998 4.269989,10.429993c3.48999,0.869995 7.779999,0.73999 10.420013,-2.049988c2.48999,-2.600006 3.199982,-6.279999 3.880005,-9.690002c3.069977,-15.890015 6.209991,-31.75 9.309998,-47.630005c0.639984,-3.670013 1.269989,-7.800018 -0.800018,-11.149994c-2.25,-3.300018 -6.98999,-3.51001 -10.459991,-2.390015z" fill="#000000"/>
  <path id="svg_7" d="m127.229996,98.01001c14.500015,-0.02002 29.000015,-0.01001 43.509995,-0.01001c-0.549988,3.019989 -1.190002,6.019989 -1.75,9.040009c-11.509979,-0.01001 -23.019989,0.009979 -34.519989,-0.01001c-2.460007,12.320007 -4.869995,24.640015 -7.360001,36.950012c10.069992,0.039978 20.12999,0.009979 30.189987,0.019989c-0.589996,2.980011 -1.109985,5.970001 -1.629974,8.959991c-10.070007,0.160004 -20.13002,0.050018 -30.200012,0.070007c-2.649994,13.660004 -5.279999,27.320007 -7.960007,40.970001c11.520004,0 23.030014,0 34.539993,0c-0.559998,2.660004 -1.009979,5.329987 -1.539978,8c-14.500015,0 -29.000015,0 -43.500015,0c6.75,-34.660004 13.560013,-69.309998 20.220001,-103.98999z" fill="#000000"/>
  <path id="svg_8" d="m181.089996,98c6.980011,0.019989 13.970001,-0.040009 20.950012,0.01001c5.779999,0.220001 12.289978,1.109985 16.350006,5.690002c4.359985,5 4.809998,12.059998 4.25,18.369995c-0.430023,6.929993 -2.440002,14.160004 -7.490021,19.179993c-2.600006,2.720001 -6.040009,4.369995 -9.429993,5.850006c2.549988,1.369995 5.459991,2.639984 6.910004,5.329987c3.079987,5.670013 2.690002,12.410004 1.889984,18.600006c-1.019989,9.160004 -4.619995,18.559998 -11.940002,24.51001c-5.699982,4.73999 -13.299988,6.399994 -20.559998,6.459991c-7.059998,0.019989 -14.129974,-0.019989 -21.190002,0c6.810028,-34.649994 13.550018,-69.320007 20.26001,-104m7.5,8.040009c-2.419983,12.319977 -4.869995,24.639984 -7.359985,36.949982c7.399994,-0.25 15.379974,1.080017 22.179993,-2.589996c6.570007,-3.109985 10.109985,-10.329987 10.459991,-17.339996c0.52002,-5.309998 0.279999,-11.929993 -4.829987,-15.029999c-6.26001,-3.369995 -13.670013,-1.519989 -20.450012,-1.98999m-17.230011,87.959991c5.26001,-0.059998 10.52002,0.149994 15.780029,-0.119995c5.799988,-0.209991 10.98999,-3.929993 14.069977,-8.700012c4.029999,-6.220001 5.170013,-13.829987 5.300018,-21.100006c0.130005,-5.22998 -2.580017,-11.039978 -8.029999,-12.359985c-6.140015,-1.339996 -12.52002,-0.410004 -18.75,-0.679993c-2.720001,14.329987 -5.550018,28.649994 -8.370026,42.959991z" fill="#000000"/>
  <path id="svg_9" d="m242.690002,98c4.799988,0 9.589996,0 14.389984,0c2.610016,13.079987 5.200012,26.170013 7.830017,39.25c1.75,8.73999 2.769989,17.619995 4.690002,26.329987c4.519989,-21.779999 8.190002,-43.72998 12.369995,-65.579987c5.23999,0 10.480011,-0.01001 15.720001,0.01001c-6.690002,34.690002 -13.470001,69.359985 -20.23999,104.029999c-4.710022,-0.01001 -9.410004,0.029999 -14.110016,-0.050018c-4.26001,-21.099976 -8.440002,-42.220001 -12.589996,-63.329987c-4.609985,21.01001 -8.170013,42.25 -12.440002,63.339996c-5.299988,-0.01001 -10.589996,0.01001 -15.880005,-0.01001c6.730011,-34.669983 13.460022,-69.339996 20.26001,-103.98999z" fill="#000000"/>
  <path id="svg_10" d="m367.799988,98c16.590027,0.01001 33.179993,-0.019989 49.77002,0.01001c-0.960022,4.98999 -2,9.970001 -2.960022,14.959991c-5.669983,0.119995 -11.339966,0.049988 -17.01001,0.070007c-5.709961,29.669983 -11.459961,59.339996 -17.249969,89c-5.290009,-0.01001 -10.580017,0 -15.869995,0c5.73999,-29.670013 11.459991,-59.339996 17.269989,-89c-5.679993,-0.01001 -11.350006,0 -17.019989,0c1.079987,-5 2,-10.040009 3.069977,-15.040009z" fill="#000000"/>
  <path id="svg_11" d="m605.840027,97.98999c1.949951,0 3.909973,0.01001 5.869995,0.029999c6.73999,29.170013 13.259949,58.410004 20.259949,87.52002c5.870056,-29.149994 11.490051,-58.350006 17.150024,-87.540009c2.070007,0 4.150024,0 6.23999,0.01001c-6.809998,34.649994 -13.5,69.329987 -20.279968,103.98999c-2.02002,-0.01001 -4.030029,0 -6.030029,0c-6.690002,-29.529999 -13.179993,-59.119995 -20.080017,-88.600006c-5.879944,29.490021 -11.429993,59.059998 -17.189941,88.589996c-2.080017,0 -4.160034,0 -6.220032,0.02002c6.780029,-34.670013 13.47998,-69.360016 20.280029,-104.02002z" fill="#000000"/>
  <path id="svg_12" d="m671.080017,98c14.169983,0.01001 28.329956,-0.019989 42.5,0.01001c-0.460022,2.009979 -0.920044,4.019989 -1.380005,6.029999c-11.980042,0 -23.960022,0.009979 -35.940002,-0.01001c-2.799988,13.640015 -5.390015,27.309998 -8.150024,40.950012c10.600037,0.039978 21.200012,0.009979 31.799988,0.019989c-0.409973,2.01001 -0.789978,4.019989 -1.159973,6.040009c-10.609985,0 -21.219971,0 -31.830017,0c-2.919983,14.97998 -5.76001,29.97998 -8.719971,44.949982c12.070007,0.029999 24.140015,-0.009979 36.209961,0.02002c-0.369995,2 -0.75,3.98999 -1.109985,5.98999c-14.159973,0 -28.309998,0 -42.469971,0c6.809998,-34.660004 13.549988,-69.320007 20.25,-104z" fill="#000000"/>
  <path id="svg_13" d="m717.059998,98c15.359985,0 30.720032,0 46.090027,0c-0.480042,2.01001 -0.930054,4.019989 -1.350037,6.040009c-6.609985,0 -13.209961,-0.01001 -19.809998,0c-6.380005,32.649994 -12.72998,65.299988 -19.039978,97.959991c-2.080017,0 -4.150024,-0.01001 -6.210022,0c6.390015,-32.640015 12.570007,-65.320007 18.940002,-97.959991c-6.659973,0 -13.330017,0 -19.98999,0c0.469971,-2.01001 0.929993,-4.029999 1.369995,-6.040009z" fill="#000000"/>
  <path id="svg_14" d="m188.589996,106.040009c6.779999,0.470001 14.190002,-1.380005 20.450012,1.98999c5.109985,3.100006 5.350006,9.720001 4.829987,15.029999c-0.350006,7.01001 -3.889984,14.230011 -10.459991,17.339996c-6.800018,3.670013 -14.779999,2.339996 -22.179993,2.589996c2.48999,-12.309998 4.940002,-24.630005 7.359985,-36.949982z" fill="#fff600"/>
  <path id="svg_15" d="m327.470001,113.619995c3.470001,-1.119995 8.209991,-0.910004 10.459991,2.390015c2.070007,3.349976 1.440002,7.47998 0.800018,11.149994c-3.100006,15.880005 -6.240021,31.73999 -9.309998,47.630005c-0.680023,3.410004 -1.390015,7.089996 -3.880005,9.690002c-2.640015,2.789978 -6.930023,2.919983 -10.420013,2.049988c-4.130005,-1.450012 -5.209991,-6.589996 -4.269989,-10.429993c3.440002,-17.700012 7.040009,-35.380005 10.529999,-53.080017c0.73999,-3.690002 2.350006,-7.839996 6.089996,-9.399994z" fill="#fff600"/>
  <path id="svg_16" d="m171.359985,194c2.820007,-14.309998 5.650024,-28.630005 8.370026,-42.959991c6.22998,0.269989 12.609985,-0.660004 18.75,0.679993c5.449982,1.320007 8.160004,7.130005 8.029999,12.359985c-0.130005,7.27002 -1.27002,14.880005 -5.300018,21.100006c-3.079987,4.77002 -8.269989,8.490021 -14.069977,8.700012c-5.26001,0.269989 -10.52002,0.059998 -15.780029,0.119995z" fill="#fff600"/>
  <path id="svg_17" d="m565.880005,194c2.539978,0 5.080017,0 7.630005,0.01001c-0.460022,2.669983 -1.02002,5.319977 -1.47998,7.98999c-2.590027,0 -5.190002,-0.01001 -7.77002,0c0.5,-2.679993 1.059998,-5.339996 1.619995,-8z" fill="#000000"/>
 </g>
</svg>